<?xml version="1.0" encoding="utf-8"?>
<!-- Generator: Adobe Illustrator 15.0.0, SVG Export Plug-In . SVG Version: 6.00 Build 0)  -->
<!DOCTYPE svg PUBLIC "-//W3C//DTD SVG 1.1//EN" "http://www.w3.org/Graphics/SVG/1.1/DTD/svg11.dtd">
<svg version="1.1" id="Layer_1" xmlns="http://www.w3.org/2000/svg" xmlns:xlink="http://www.w3.org/1999/xlink" x="0px" y="0px"
	 width="424.463px" height="371px" viewBox="0 0 424.463 371" enable-background="new 0 0 424.463 371" xml:space="preserve">
<g>
	<defs>
		<rect id="SVGID_1_" x="3.778" y="324.835" width="416.469" height="42.79"/>
	</defs>
	<clipPath id="SVGID_2_">
		<use xlink:href="#SVGID_1_"  overflow="visible"/>
	</clipPath>
	
		<linearGradient id="SVGID_3_" gradientUnits="userSpaceOnUse" x1="-32.5024" y1="405" x2="-31.5024" y2="405" gradientTransform="matrix(416.469 0 0 -416.469 13540.0898 169016.1406)">
		<stop  offset="0" style="stop-color:#00270F"/>
		<stop  offset="0.53" style="stop-color:#009549"/>
		<stop  offset="1" style="stop-color:#00270F"/>
	</linearGradient>
	<rect x="3.778" y="324.835" clip-path="url(#SVGID_2_)" fill="url(#SVGID_3_)" width="416.469" height="42.79"/>
</g>
<g>
	<defs>
		<path id="SVGID_4_" d="M13.658,249.803c-1.446,2.998-2.168,5.991-2.168,8.987c0,3.581,1.038,6.775,3.129,9.576
			c1.611,2.116,4.068,4.248,7.383,6.397c2.833,1.759,5.645,3.5,8.441,5.228c5.756,3.806,8.632,8.074,8.632,12.793
			c0,3.652-1.513,6.664-4.531,9.038c-2.797,2.185-6.062,3.274-9.788,3.274c-3.478,0-6.306-0.896-8.493-2.685
			c-2.377-1.959-3.57-4.659-3.57-8.109c0-0.98,0.096-2.117,0.287-3.419H7.239l-2.65,17.435c8.297,1.043,14.419,1.565,18.379,1.565
			c12.446,0,21.269-4.361,26.477-13.092c2.089-3.55,3.136-7.114,3.136-10.696c0-5.668-2.122-10.422-6.367-14.266
			c-1.861-1.69-6.319-4.542-13.358-8.547c-6.016-3.381-9.02-7.017-9.02-10.895c0-3.093,1.315-5.729,3.953-7.915
			c2.346-1.916,5.276-2.879,8.781-2.879c2.472,0,4.76,0.703,6.852,2.101c2.344,1.595,3.516,3.567,3.516,5.912
			c0,0.848-0.125,2.346-0.382,4.493h5.643l2.166-15.631c-8.165-1.398-13.919-2.103-17.266-2.103
			C25.776,236.367,17.966,240.844,13.658,249.803"/>
	</defs>
	<clipPath id="SVGID_5_">
		<use xlink:href="#SVGID_4_"  overflow="visible"/>
	</clipPath>
	
		<linearGradient id="SVGID_6_" gradientUnits="userSpaceOnUse" x1="-32.5" y1="405.0137" x2="-31.5" y2="405.0137" gradientTransform="matrix(0 -73.5179 -73.5179 0 29805.1934 -2079.4495)">
		<stop  offset="0" style="stop-color:#E3B56A"/>
		<stop  offset="0.4" style="stop-color:#F4E589"/>
		<stop  offset="0.65" style="stop-color:#C4904E"/>
		<stop  offset="1" style="stop-color:#DFB469"/>
	</linearGradient>
	<rect x="4.589" y="236.367" clip-path="url(#SVGID_5_)" fill="url(#SVGID_6_)" width="49.776" height="73.517"/>
</g>
<g>
	<defs>
		<path id="SVGID_7_" d="M70.284,266.557c-3.41,1.892-6.44,4.021-9.069,6.4l2.889,3.417c2.802-2.111,4.629-3.174,5.505-3.174
			c1.379,0,2.075,0.67,2.075,1.999c0,0.492-0.627,2.739-1.884,6.745c-1.576,5.014-2.833,9.184-3.764,12.506
			c-0.517,1.594-1.027,3.186-1.542,4.786c-0.546,1.918-0.821,3.582-0.821,4.981c0,1.662,0.549,2.996,1.66,4.005
			c1.113,1.004,2.501,1.515,4.181,1.515c2.566,0,5.848-1.089,9.836-3.272c3.278-1.855,6.177-3.938,8.68-6.252l-2.796-3.082
			c-3.669,2.576-5.851,3.862-6.563,3.862c-1.255,0-1.875-0.73-1.875-2.198c0-0.876,0.657-3.415,1.972-7.62
			c1.546-5.24,2.706-9.18,3.473-11.823c2.03-6.608,3.044-10.464,3.044-11.575c0-1.363-0.492-2.47-1.472-3.317
			c-0.986-0.849-2.165-1.272-3.549-1.272C77.656,263.187,74.332,264.308,70.284,266.557 M78.001,244.652
			c-1.705,1.901-2.558,3.978-2.558,6.225c0,1.497,0.536,2.743,1.615,3.734c1.08,0.996,2.343,1.495,3.782,1.495
			c2.125,0,4.041-0.923,5.747-2.761c1.703-1.84,2.554-3.816,2.554-5.938c0-1.596-0.498-2.932-1.497-4
			c-0.996-1.076-2.265-1.617-3.806-1.617C81.648,241.79,79.703,242.745,78.001,244.652"/>
	</defs>
	<clipPath id="SVGID_8_">
		<use xlink:href="#SVGID_7_"  overflow="visible"/>
	</clipPath>
	
		<linearGradient id="SVGID_9_" gradientUnits="userSpaceOnUse" x1="-32.5005" y1="405.0137" x2="-31.5005" y2="405.0137" gradientTransform="matrix(0 -67.947 -67.947 0 27594.7383 -1898.5702)">
		<stop  offset="0" style="stop-color:#E3B56A"/>
		<stop  offset="0.4" style="stop-color:#F4E589"/>
		<stop  offset="0.65" style="stop-color:#C4904E"/>
		<stop  offset="1" style="stop-color:#DFB469"/>
	</linearGradient>
	<rect x="61.215" y="241.79" clip-path="url(#SVGID_8_)" fill="url(#SVGID_9_)" width="27.926" height="67.947"/>
</g>
<g>
	<defs>
		<path id="SVGID_10_" d="M120.964,267.68c3.02,0,4.539,1.535,4.539,4.59c0,2.769-1.033,5.295-3.092,7.572
			c-2.926,3.227-7.668,5.104-14.229,5.618C111.585,273.609,115.85,267.68,120.964,267.68 M103.405,272.2
			c-6.204,6.204-9.307,13.242-9.307,21.122c0,4.692,1.233,8.568,3.716,11.627c2.699,3.29,6.336,4.935,10.901,4.935
			c7.907,0,16.027-4.021,24.357-12.066l-2.507-4.054c-1.991,2.38-4.377,4.433-7.14,6.156c-3.12,1.921-5.956,2.88-8.488,2.88
			c-5.34,0-8.009-3.194-8.009-9.571c0-1.109,0.093-2.179,0.286-3.226c12.611-0.325,21.194-2.818,25.761-7.473
			c2.471-2.539,3.714-5.323,3.714-8.354c0-3.517-1.208-6.316-3.617-8.398c-2.248-1.922-5.127-2.883-8.636-2.883
			C116.622,262.895,109.61,265.997,103.405,272.2"/>
	</defs>
	<clipPath id="SVGID_11_">
		<use xlink:href="#SVGID_10_"  overflow="visible"/>
	</clipPath>
	
		<linearGradient id="SVGID_12_" gradientUnits="userSpaceOnUse" x1="-32.5" y1="405.0215" x2="-31.5" y2="405.0215" gradientTransform="matrix(0 -46.9893 -46.9893 0 19147.0742 -1217.2695)">
		<stop  offset="0" style="stop-color:#E3B56A"/>
		<stop  offset="0.4" style="stop-color:#F4E589"/>
		<stop  offset="0.65" style="stop-color:#C4904E"/>
		<stop  offset="1" style="stop-color:#DFB469"/>
	</linearGradient>
	<rect x="94.098" y="262.895" clip-path="url(#SVGID_11_)" fill="url(#SVGID_12_)" width="42.591" height="46.989"/>
</g>
<g>
	<defs>
		<path id="SVGID_13_" d="M175.004,263.283h-0.068c-5.275,0-9.554,0.701-12.826,2.096c-5.858,2.541-10.83,7.221-14.907,14.025
			c-3.318,5.504-4.971,11.006-4.971,16.511c0,4.069,1.05,7.392,3.135,9.965c2.255,2.735,5.35,4.103,9.309,4.103
			c6.301,0,12.073-2.406,17.316-7.229c0.837-0.781,1.967-1.953,3.378-3.518c2.188-2.444,3.839-4.742,4.97-6.888l-3.814-2.346
			c-4.017,7.068-8.57,10.599-13.652,10.599c-5.272,0-7.911-3.124-7.911-9.376c0-3.388,0.665-7.064,1.982-11.042
			c1.477-4.395,3.293-7.569,5.447-9.524c1.673-1.496,3.637-2.248,5.887-2.248c3.183,0,4.773,1.794,4.773,5.375v1.124h6.368
			l2.078-11.427c-2.839-0.132-4.978-0.195-6.425-0.2H175.004z"/>
	</defs>
	<clipPath id="SVGID_14_">
		<use xlink:href="#SVGID_13_"  overflow="visible"/>
	</clipPath>
	
		<linearGradient id="SVGID_15_" gradientUnits="userSpaceOnUse" x1="-32.5" y1="405.0215" x2="-31.5" y2="405.0215" gradientTransform="matrix(0 -46.6994 -46.6994 0 19076.125 -1207.7521)">
		<stop  offset="0" style="stop-color:#E3B56A"/>
		<stop  offset="0.4" style="stop-color:#F4E589"/>
		<stop  offset="0.65" style="stop-color:#C4904E"/>
		<stop  offset="1" style="stop-color:#DFB469"/>
	</linearGradient>
	<rect x="142.232" y="263.283" clip-path="url(#SVGID_14_)" fill="url(#SVGID_15_)" width="39.266" height="46.699"/>
</g>
<g>
	<defs>
		<path id="SVGID_16_" d="M204.447,232.967c-1.995,0.193-5.566,0.438-10.708,0.732l-1.108,4.299h0.961h0.868
			c1.894,0,3.214,0.23,3.959,0.685c0.994,0.617,1.49,1.855,1.49,3.714c0,2.638-0.589,6.331-1.782,11.087
			c-0.961,3.679-1.945,7.378-2.944,11.09l-11.14,44.547l12.108-1.806c2.281-9.281,4.013-15.26,5.207-17.93
			c3.016-6.542,6.629-11.315,10.805-14.313c1.28-0.909,2.508-1.367,3.667-1.367c1.639,0,2.46,1.01,2.46,3.031
			c0,1.045-0.531,3.385-1.59,7.032l-2.658,9.281c-1.766,6.224-2.655,10.017-2.655,11.381c0,3.582,1.95,5.375,5.843,5.375
			c5.013,0,11.352-3.549,19.001-10.649l-2.797-3.222c-3.376,2.8-5.631,4.198-6.75,4.198c-1.322,0-1.981-0.604-1.981-1.81
			c0-0.454,0.499-2.639,1.498-6.545c1.156-4.229,2.038-7.405,2.65-9.524c2.249-7.654,3.377-12.194,3.377-13.629
			c0-4.135-2.14-6.201-6.413-6.201c-3.633,0-7.786,1.806-12.446,5.417c-3.603,2.84-6.926,6.227-9.985,10.16l11.621-46.988
			C211.917,231.893,208.397,232.544,204.447,232.967"/>
	</defs>
	<clipPath id="SVGID_17_">
		<use xlink:href="#SVGID_16_"  overflow="visible"/>
	</clipPath>
	
		<linearGradient id="SVGID_18_" gradientUnits="userSpaceOnUse" x1="-32.5" y1="405.0137" x2="-31.5" y2="405.0137" gradientTransform="matrix(0 -78.7935 -78.7935 0 32122.5371 -2251.0022)">
		<stop  offset="0" style="stop-color:#E3B56A"/>
		<stop  offset="0.4" style="stop-color:#F4E589"/>
		<stop  offset="0.65" style="stop-color:#C4904E"/>
		<stop  offset="1" style="stop-color:#DFB469"/>
	</linearGradient>
	<rect x="184.043" y="231.012" clip-path="url(#SVGID_17_)" fill="url(#SVGID_18_)" width="52.188" height="78.793"/>
</g>
<g>
	<defs>
		<path id="SVGID_19_" d="M242.497,271.83c-1.355,1.075-2.123,1.729-2.317,1.956l2.988,3.371c2.223-1.921,3.875-2.883,4.975-2.883
			c1.512,0,2.266,0.977,2.266,2.933c0,1.167-0.856,5.202-2.575,12.088c-1.723,6.888-3.486,13.8-5.29,20.733l11.87-2.053
			c4.114-14.653,8.713-24.433,13.799-29.352c2.54-2.41,4.709-3.619,6.508-3.619c1.511,0,2.271,0.9,2.271,2.686
			c0,2.315-1.736,8.766-5.213,19.344c-0.387,0.688-0.803,1.924-1.252,3.718c-0.45,1.792-0.678,3.074-0.678,3.857
			c0,1.691,0.663,3.046,1.98,4.053c1.158,0.878,2.572,1.32,4.242,1.32c1.353,0,3.054-0.276,5.112-0.828
			c2.799-0.684,5.553-1.923,8.25-3.718c3.25-2.371,5.707-4.196,7.382-5.469l-2.61-3.855c-3.691,2.997-6.235,4.489-7.616,4.489
			c-1.865,0-2.8-1.021-2.8-3.074c0-0.682,0.464-2.668,1.403-5.961c1.19-3.841,2.393-7.686,3.612-11.529
			c1.741-5.667,2.604-9.28,2.604-10.842c0-1.89-0.726-3.403-2.168-4.539c-1.352-1.046-2.96-1.566-4.825-1.566
			c-3.635,0-7.907,2.034-12.836,6.105c-4.239,3.517-7.636,7.294-10.17,11.33c1.638-5.759,2.46-9.979,2.46-12.652
			c0-3.515-1.162-5.275-3.478-5.275C256.182,262.598,250.211,265.679,242.497,271.83"/>
	</defs>
	<clipPath id="SVGID_20_">
		<use xlink:href="#SVGID_19_"  overflow="visible"/>
	</clipPath>
	
		<linearGradient id="SVGID_21_" gradientUnits="userSpaceOnUse" x1="-32.5005" y1="405.0195" x2="-31.5005" y2="405.0195" gradientTransform="matrix(0 -47.4307 -47.4307 0 19478.9336 -1231.4775)">
		<stop  offset="0" style="stop-color:#E3B56A"/>
		<stop  offset="0.4" style="stop-color:#F4E589"/>
		<stop  offset="0.65" style="stop-color:#C4904E"/>
		<stop  offset="1" style="stop-color:#DFB469"/>
	</linearGradient>
	<rect x="240.18" y="262.598" clip-path="url(#SVGID_20_)" fill="url(#SVGID_21_)" width="56.635" height="47.431"/>
</g>
<g>
	<defs>
		<path id="SVGID_22_" d="M309.402,266.557c-3.412,1.892-6.434,4.021-9.073,6.4l2.901,3.417c2.792-2.111,4.625-3.174,5.498-3.174
			c1.379,0,2.068,0.67,2.068,1.999c0,0.492-0.627,2.739-1.879,6.745c-1.58,5.014-2.828,9.184-3.761,12.506
			c-0.521,1.594-1.028,3.186-1.542,4.786c-0.548,1.918-0.826,3.582-0.826,4.981c0,1.662,0.553,2.996,1.665,4.005
			c1.106,1.004,2.499,1.515,4.176,1.515c2.571,0,5.852-1.089,9.837-3.272c3.281-1.855,6.174-3.938,8.687-6.252l-2.801-3.082
			c-3.667,2.576-5.852,3.862-6.557,3.862c-1.262,0-1.883-0.73-1.883-2.198c0-0.876,0.658-3.415,1.978-7.62
			c1.539-5.24,2.698-9.18,3.476-11.823c2.022-6.608,3.037-10.464,3.037-11.575c0-1.363-0.493-2.47-1.477-3.317
			c-0.98-0.849-2.162-1.272-3.54-1.272C316.776,263.187,313.449,264.308,309.402,266.557 M317.112,244.652
			c-1.696,1.901-2.552,3.978-2.552,6.225c0,1.497,0.54,2.743,1.617,3.734c1.079,0.996,2.335,1.495,3.784,1.495
			c2.121,0,4.036-0.923,5.743-2.761c1.697-1.84,2.558-3.816,2.558-5.938c0-1.596-0.497-2.932-1.497-4
			c-1-1.076-2.272-1.617-3.813-1.617C320.765,241.79,318.819,242.745,317.112,244.652"/>
	</defs>
	<clipPath id="SVGID_23_">
		<use xlink:href="#SVGID_22_"  overflow="visible"/>
	</clipPath>
	
		<linearGradient id="SVGID_24_" gradientUnits="userSpaceOnUse" x1="-32.5005" y1="405.0137" x2="-31.5005" y2="405.0137" gradientTransform="matrix(0 -67.947 -67.947 0 27833.8633 -1898.5702)">
		<stop  offset="0" style="stop-color:#E3B56A"/>
		<stop  offset="0.4" style="stop-color:#F4E589"/>
		<stop  offset="0.65" style="stop-color:#C4904E"/>
		<stop  offset="1" style="stop-color:#DFB469"/>
	</linearGradient>
	<rect x="300.329" y="241.79" clip-path="url(#SVGID_23_)" fill="url(#SVGID_24_)" width="27.934" height="67.947"/>
</g>
<g>
	<defs>
		<path id="SVGID_25_" d="M365.506,263.283h-0.068c-5.276,0-9.55,0.701-12.832,2.096c-5.847,2.541-10.817,7.221-14.904,14.025
			c-3.316,5.504-4.964,11.006-4.964,16.511c0,4.069,1.042,7.392,3.135,9.965c2.248,2.735,5.348,4.103,9.304,4.103
			c6.306,0,12.074-2.406,17.317-7.229c0.839-0.781,1.963-1.953,3.378-3.518c2.186-2.444,3.841-4.742,4.971-6.888l-3.811-2.346
			c-4.022,7.068-8.573,10.599-13.66,10.599c-5.27,0-7.907-3.124-7.907-9.376c0-3.388,0.66-7.064,1.983-11.042
			c1.482-4.395,3.292-7.569,5.449-9.524c1.669-1.496,3.633-2.248,5.884-2.248c3.183,0,4.776,1.794,4.776,5.375v1.124h6.369
			l2.073-11.427c-2.839-0.132-4.978-0.195-6.425-0.2H365.506z"/>
	</defs>
	<clipPath id="SVGID_26_">
		<use xlink:href="#SVGID_25_"  overflow="visible"/>
	</clipPath>
	
		<linearGradient id="SVGID_27_" gradientUnits="userSpaceOnUse" x1="-32.5" y1="405.0215" x2="-31.5" y2="405.0215" gradientTransform="matrix(0 -46.6994 -46.6994 0 19266.625 -1207.7521)">
		<stop  offset="0" style="stop-color:#E3B56A"/>
		<stop  offset="0.4" style="stop-color:#F4E589"/>
		<stop  offset="0.65" style="stop-color:#C4904E"/>
		<stop  offset="1" style="stop-color:#DFB469"/>
	</linearGradient>
	<rect x="332.737" y="263.283" clip-path="url(#SVGID_26_)" fill="url(#SVGID_27_)" width="39.262" height="46.699"/>
</g>
<g>
	<defs>
		<path id="SVGID_28_" d="M402.57,267.68c3.019,0,4.535,1.535,4.535,4.59c0,2.769-1.031,5.295-3.087,7.572
			c-2.932,3.227-7.673,5.104-14.234,5.618C393.194,273.609,397.456,267.68,402.57,267.68 M385.011,272.2
			c-6.208,6.204-9.307,13.242-9.307,21.122c0,4.692,1.237,8.568,3.713,11.627c2.699,3.29,6.331,4.935,10.897,4.935
			c7.91,0,16.032-4.021,24.363-12.066l-2.511-4.054c-1.992,2.38-4.369,4.433-7.137,6.156c-3.119,1.921-5.951,2.88-8.491,2.88
			c-5.34,0-8.006-3.194-8.006-9.571c0-1.109,0.092-2.179,0.292-3.226c12.604-0.325,21.191-2.818,25.755-7.473
			c2.472-2.539,3.716-5.323,3.716-8.354c0-3.517-1.207-6.316-3.618-8.398c-2.255-1.922-5.131-2.883-8.637-2.883
			C398.225,262.895,391.214,265.997,385.011,272.2"/>
	</defs>
	<clipPath id="SVGID_29_">
		<use xlink:href="#SVGID_28_"  overflow="visible"/>
	</clipPath>
	
		<linearGradient id="SVGID_30_" gradientUnits="userSpaceOnUse" x1="-32.5" y1="405.0215" x2="-31.5" y2="405.0215" gradientTransform="matrix(0 -46.9893 -46.9893 0 19428.668 -1217.2695)">
		<stop  offset="0" style="stop-color:#E3B56A"/>
		<stop  offset="0.4" style="stop-color:#F4E589"/>
		<stop  offset="0.65" style="stop-color:#C4904E"/>
		<stop  offset="1" style="stop-color:#DFB469"/>
	</linearGradient>
	<rect x="375.704" y="262.895" clip-path="url(#SVGID_29_)" fill="url(#SVGID_30_)" width="42.592" height="46.989"/>
</g>
<g>
	<defs>
		<path id="SVGID_31_" d="M403.001,230.805h1.091c1.542,0,2.504,0.069,2.906,0.19c0.388,0.128,0.688,0.335,0.908,0.628
			c0.213,0.293,0.317,0.619,0.317,0.995c0,0.388-0.108,0.734-0.329,1.034c-0.213,0.3-0.518,0.515-0.892,0.637
			c-0.377,0.121-1.351,0.177-2.911,0.177h-1.091V230.805z M400.231,228.662v13.487h2.77v-5.54h0.705
			c0.765,0,1.389,0.194,1.883,0.572c0.496,0.383,1.115,1.31,1.853,2.774l1.093,2.193h3.438l-1.529-2.721
			c-0.568-0.959-0.908-1.507-1.008-1.643c-0.388-0.506-0.699-0.853-0.923-1.033c-0.219-0.188-0.54-0.354-0.952-0.512
			c1.146-0.162,2.031-0.592,2.663-1.285c0.631-0.688,0.945-1.521,0.945-2.492c0-0.711-0.162-1.35-0.501-1.934
			c-0.337-0.578-0.758-1.015-1.269-1.291c-0.496-0.29-1.201-0.466-2.112-0.544c-0.314-0.023-1.748-0.033-4.316-0.033H400.231z
			 M400.88,244.273c-1.629-0.923-2.895-2.181-3.805-3.807c-0.903-1.618-1.356-3.328-1.356-5.11c0-1.802,0.463-3.528,1.394-5.167
			c0.927-1.644,2.192-2.905,3.813-3.786c1.609-0.873,3.297-1.313,5.047-1.313c1.764,0,3.459,0.44,5.076,1.313
			c1.62,0.881,2.895,2.143,3.815,3.786c0.935,1.639,1.396,3.365,1.396,5.167c0,1.782-0.459,3.492-1.362,5.11
			c-0.92,1.626-2.181,2.884-3.798,3.807c-1.623,0.908-3.326,1.359-5.128,1.359C404.201,245.633,402.501,245.182,400.88,244.273
			 M399.667,224.198c-2.022,1.094-3.609,2.67-4.767,4.72c-1.152,2.052-1.729,4.205-1.729,6.448c0,2.228,0.567,4.354,1.699,6.382
			c1.131,2.021,2.714,3.598,4.731,4.732c2.025,1.133,4.157,1.695,6.383,1.695c2.23,0,4.366-0.563,6.388-1.695
			c2.025-1.135,3.608-2.711,4.735-4.732c1.129-2.027,1.7-4.154,1.7-6.382c0-2.243-0.581-4.396-1.732-6.448
			c-1.153-2.05-2.745-3.626-4.761-4.72c-2.021-1.104-4.128-1.659-6.33-1.659C403.793,222.539,401.681,223.095,399.667,224.198"/>
	</defs>
	<clipPath id="SVGID_32_">
		<use xlink:href="#SVGID_31_"  overflow="visible"/>
	</clipPath>
	
		<linearGradient id="SVGID_33_" gradientUnits="userSpaceOnUse" x1="-32.5386" y1="405" x2="-31.5386" y2="405" gradientTransform="matrix(25.6365 0 0 -25.6365 1227.3519 10618.1436)">
		<stop  offset="0" style="stop-color:#E3B56A"/>
		<stop  offset="0.4" style="stop-color:#F4E589"/>
		<stop  offset="0.65" style="stop-color:#C4904E"/>
		<stop  offset="1" style="stop-color:#DFB469"/>
	</linearGradient>
	<rect x="393.172" y="222.539" clip-path="url(#SVGID_32_)" fill="url(#SVGID_33_)" width="25.637" height="25.637"/>
</g>
<g>
	<defs>
		<path id="SVGID_34_" d="M76.754,335.348c-3.054,0-5.799,0-8.195-0.075l-0.509,7.275h1.443c0.583-5.113,2.432-5.854,7.495-5.854
			h3.252l-13.223,19.472v1.288c2.885-0.056,5.539-0.112,7.994-0.112c2.429,0,5.313,0.03,8.658,0.112l0.822-7.596H83.01
			c-0.579,2.712-1.286,4.366-2.686,5.172c-1.258,0.71-3,0.796-5.372,0.796H73.9h-2.741l13.047-19.244v-1.309
			C81.692,335.348,79.213,335.348,76.754,335.348"/>
	</defs>
	<clipPath id="SVGID_35_">
		<use xlink:href="#SVGID_34_"  overflow="visible"/>
	</clipPath>
	
		<linearGradient id="SVGID_36_" gradientUnits="userSpaceOnUse" x1="-32.5" y1="405.0449" x2="-31.5" y2="405.0449" gradientTransform="matrix(0 -22.1805 -22.1805 0 9059.8662 -363.4069)">
		<stop  offset="0" style="stop-color:#E3B56A"/>
		<stop  offset="0.4" style="stop-color:#F4E589"/>
		<stop  offset="1" style="stop-color:#DFB469"/>
	</linearGradient>
	<rect x="67.017" y="335.272" clip-path="url(#SVGID_35_)" fill="url(#SVGID_36_)" width="17.474" height="22.181"/>
</g>
<g>
	<defs>
		<path id="SVGID_37_" d="M96.509,337.952l3.285,9.507h-6.647L96.509,337.952z M95.975,334.753
			c-0.492,1.338-0.863,2.316-1.115,2.915l-5.456,14.271c-0.999,2.572-1.804,3.855-3.398,4.027v1.486h7.708v-1.486
			c-1.881-0.053-2.742-0.511-2.742-1.771c0-0.34,0.12-0.798,0.287-1.312l1.29-3.769h7.729l1.204,3.769
			c0.23,0.687,0.394,1.229,0.394,1.658c0,1.055-0.883,1.339-2.887,1.424v1.486h9.143v-1.486c-1.682-0.111-2.191-1.058-2.969-3.254
			l-5.394-15.075c-0.202-0.481-0.457-1.456-0.857-2.885H95.975z"/>
	</defs>
	<clipPath id="SVGID_38_">
		<use xlink:href="#SVGID_37_"  overflow="visible"/>
	</clipPath>
	
		<linearGradient id="SVGID_39_" gradientUnits="userSpaceOnUse" x1="-32.5005" y1="405.0439" x2="-31.5005" y2="405.0439" gradientTransform="matrix(0 -22.6995 -22.6995 0 9291.3604 -380.2794)">
		<stop  offset="0" style="stop-color:#E3B56A"/>
		<stop  offset="0.4" style="stop-color:#F4E589"/>
		<stop  offset="1" style="stop-color:#DFB469"/>
	</linearGradient>
	<rect x="86.006" y="334.753" clip-path="url(#SVGID_38_)" fill="url(#SVGID_39_)" width="22.126" height="22.7"/>
</g>
<g>
	<defs>
		<path id="SVGID_40_" d="M123.123,335.272v1.452h0.432c2.91,0,3.056,1.973,3.056,7.45v1.52v1.049c0,2.8-0.063,4.915-0.915,6.57
			c-0.917,1.741-2.401,2.626-4.456,2.626c-3.769,0-5.534-2.368-5.534-7.109v-7.965c0-3.114,0.165-4.141,3.077-4.141h0.144v-1.452
			h-10.052v1.452h0.118c2.883,0,3.14,1.026,3.14,4.141v8.563c0,5.77,2.107,8.505,7.76,8.505c3.662,0,6.317-1.512,7.457-4.077
			c1.012-2.279,1.005-5.072,0.995-8.65c0-0.544-0.002-1.106,0-1.69c0.063-4.964-0.139-6.76,3.323-6.791v-1.452H123.123z"/>
	</defs>
	<clipPath id="SVGID_41_">
		<use xlink:href="#SVGID_40_"  overflow="visible"/>
	</clipPath>
	
		<linearGradient id="SVGID_42_" gradientUnits="userSpaceOnUse" x1="-32.5005" y1="405.0439" x2="-31.5005" y2="405.0439" gradientTransform="matrix(0 -22.6624 -22.6624 0 9299.5557 -378.5963)">
		<stop  offset="0" style="stop-color:#E3B56A"/>
		<stop  offset="0.4" style="stop-color:#F4E589"/>
		<stop  offset="1" style="stop-color:#DFB469"/>
	</linearGradient>
	<rect x="108.875" y="335.272" clip-path="url(#SVGID_41_)" fill="url(#SVGID_42_)" width="22.793" height="22.661"/>
</g>
<g>
	<defs>
		<path id="SVGID_43_" d="M142.706,335.272c-0.886,0-2.422,0.025-4.676,0.025c-1.127,0-2.429,0-3.912-0.025v1.452h0.109
			c3.112,0,3.142,1.173,3.142,4.624v9.368v0.941c0,3.192-0.141,4.309-3.053,4.309h-0.198v1.486h10.045v-1.486h-0.232
			c-2.907,0-3.024-1.141-3.024-4.334v-0.916v-4.002c0.344,0,0.66-0.025,0.974-0.025c3.286,0,4.421,0.795,4.483,3.655h1.543
			c-0.058-1.653-0.088-3.145-0.088-4.539c0-1.398,0.058-2.774,0.088-4.171h-1.543v0.198c0,2.403-1.261,3.399-4.165,3.399h-1.292
			v-5.684c0-0.911,0-1.852,0.062-2.824h2.342h1.97c4.283,0,5.884,1.344,6.164,5.766h1.541l-0.144-7.425
			C150.299,335.272,146.936,335.272,142.706,335.272"/>
	</defs>
	<clipPath id="SVGID_44_">
		<use xlink:href="#SVGID_43_"  overflow="visible"/>
	</clipPath>
	
		<linearGradient id="SVGID_45_" gradientUnits="userSpaceOnUse" x1="-32.5" y1="405.0449" x2="-31.5" y2="405.0449" gradientTransform="matrix(0 -22.3874 -22.3874 0 9211.457 -370.142)">
		<stop  offset="0" style="stop-color:#E3B56A"/>
		<stop  offset="0.4" style="stop-color:#F4E589"/>
		<stop  offset="1" style="stop-color:#DFB469"/>
	</linearGradient>
	<rect x="134.118" y="335.065" clip-path="url(#SVGID_44_)" fill="url(#SVGID_45_)" width="18.868" height="22.388"/>
</g>
<g>
	<defs>
		<path id="SVGID_46_" d="M162.241,337.952l3.286,9.507h-6.657L162.241,337.952z M161.703,334.753
			c-0.492,1.338-0.859,2.316-1.12,2.915l-5.454,14.271c-1,2.572-1.799,3.855-3.395,4.027v1.486h7.706v-1.486
			c-1.878-0.053-2.738-0.511-2.738-1.771c0-0.34,0.117-0.798,0.285-1.312l1.288-3.769h7.74l1.194,3.769
			c0.23,0.687,0.395,1.229,0.395,1.658c0,1.055-0.883,1.339-2.874,1.424v1.486h9.131v-1.486c-1.68-0.111-2.197-1.058-2.97-3.254
			l-5.394-15.075c-0.201-0.481-0.458-1.456-0.857-2.885H161.703z"/>
	</defs>
	<clipPath id="SVGID_47_">
		<use xlink:href="#SVGID_46_"  overflow="visible"/>
	</clipPath>
	
		<linearGradient id="SVGID_48_" gradientUnits="userSpaceOnUse" x1="-32.5005" y1="405.0439" x2="-31.5005" y2="405.0439" gradientTransform="matrix(0 -22.6995 -22.6995 0 9357.0947 -380.2794)">
		<stop  offset="0" style="stop-color:#E3B56A"/>
		<stop  offset="0.4" style="stop-color:#F4E589"/>
		<stop  offset="1" style="stop-color:#DFB469"/>
	</linearGradient>
	<rect x="151.734" y="334.753" clip-path="url(#SVGID_47_)" fill="url(#SVGID_48_)" width="22.127" height="22.7"/>
</g>
<g>
	<defs>
		<path id="SVGID_49_" d="M180.029,335.272v1.452h0.119c2.823,0,3.106,0.973,3.168,4.141l0.255,9.452v0.647
			c0,3.605-0.77,5.402-3.083,5.402c-1.286,0-2.142-0.716-2.142-1.824c0-0.912,0.544-1.398,1.598-1.491
			c0.057-0.339,0.057-0.508,0.057-0.6c0-1.365-0.881-2.226-2.375-2.226c-1.423,0-2.625,1.227-2.625,3.172
			c0,2.767,2.032,4.535,5.829,4.535c4.716,0,6.363-2.453,6.363-7.217c0-0.117,0.031-0.261,0-0.399l-0.138-9.483v-0.599
			c0-2.739,0.456-3.511,3.055-3.511h0.173v-1.452H180.029z"/>
	</defs>
	<clipPath id="SVGID_50_">
		<use xlink:href="#SVGID_49_"  overflow="visible"/>
	</clipPath>
	
		<linearGradient id="SVGID_51_" gradientUnits="userSpaceOnUse" x1="-32.5005" y1="405.0439" x2="-31.5005" y2="405.0439" gradientTransform="matrix(0 -22.6624 -22.6624 0 9361.915 -378.5963)">
		<stop  offset="0" style="stop-color:#E3B56A"/>
		<stop  offset="0.4" style="stop-color:#F4E589"/>
		<stop  offset="1" style="stop-color:#DFB469"/>
	</linearGradient>
	<rect x="175.001" y="335.272" clip-path="url(#SVGID_50_)" fill="url(#SVGID_51_)" width="15.282" height="22.661"/>
</g>
<g>
	<defs>
		<path id="SVGID_52_" d="M214.717,335.272v1.452c1.798,0.061,2.738,0.345,3.086,1.344c0.537,1.512,0.626,6.191,0.626,14.078
			l-10.819-16.874h-7.196v1.452h0.17c3.001,0,3.001,0.943,3.001,4.91c0,7.794-0.086,12.249-0.686,13.329
			c-0.4,0.803-1.172,0.95-2.629,1.003v1.486h8.599v-1.486h-0.287c-1.318,0-2.143-0.228-2.574-0.938
			c-0.606-0.916-0.768-4.742-0.768-11.539c0-1.507,0.029-3.365,0.057-5.656l12.935,20.1h1.909c-0.112-2.992-0.142-5.647-0.142-7.964
			c0-7.367,0.087-11.446,0.715-12.393c0.46-0.652,1.285-0.792,2.74-0.853v-1.452H214.717z"/>
	</defs>
	<clipPath id="SVGID_53_">
		<use xlink:href="#SVGID_52_"  overflow="visible"/>
	</clipPath>
	
		<linearGradient id="SVGID_54_" gradientUnits="userSpaceOnUse" x1="-32.5005" y1="405.0439" x2="-31.5005" y2="405.0439" gradientTransform="matrix(0 -22.6624 -22.6624 0 9391.1338 -378.5963)">
		<stop  offset="0" style="stop-color:#E3B56A"/>
		<stop  offset="0.4" style="stop-color:#F4E589"/>
		<stop  offset="1" style="stop-color:#DFB469"/>
	</linearGradient>
	<rect x="200.27" y="335.272" clip-path="url(#SVGID_53_)" fill="url(#SVGID_54_)" width="23.184" height="22.661"/>
</g>
<g>
	<defs>
		<path id="SVGID_55_" d="M234.905,337.952l3.288,9.507h-6.657L234.905,337.952z M234.366,334.753
			c-0.492,1.338-0.858,2.316-1.12,2.915l-5.451,14.271c-0.999,2.572-1.797,3.855-3.395,4.027v1.486h7.702v-1.486
			c-1.874-0.053-2.737-0.511-2.737-1.771c0-0.34,0.122-0.798,0.285-1.312l1.292-3.769h7.733l1.202,3.769
			c0.228,0.687,0.389,1.229,0.389,1.658c0,1.055-0.884,1.339-2.88,1.424v1.486h9.139v-1.486c-1.683-0.111-2.194-1.058-2.973-3.254
			l-5.39-15.075c-0.197-0.481-0.461-1.456-0.862-2.885H234.366z"/>
	</defs>
	<clipPath id="SVGID_56_">
		<use xlink:href="#SVGID_55_"  overflow="visible"/>
	</clipPath>
	
		<linearGradient id="SVGID_57_" gradientUnits="userSpaceOnUse" x1="-32.5005" y1="405.0439" x2="-31.5005" y2="405.0439" gradientTransform="matrix(0 -22.6995 -22.6995 0 9429.751 -380.2794)">
		<stop  offset="0" style="stop-color:#E3B56A"/>
		<stop  offset="0.4" style="stop-color:#F4E589"/>
		<stop  offset="1" style="stop-color:#DFB469"/>
	</linearGradient>
	<rect x="224.4" y="334.753" clip-path="url(#SVGID_56_)" fill="url(#SVGID_57_)" width="22.125" height="22.7"/>
</g>
<g>
	<defs>
		<path id="SVGID_58_" d="M261.578,335.464c-1.52,0-3.085-0.054-4.798-0.054c-1.542,0-3.024,0.054-4.453,0.054
			c-1.89,0-3.601-0.054-5.202-0.191l-0.14,6.794h1.372c0.573-3.914,1.737-5.058,5.306-5.058h1.341v14.365
			c0,3.477-0.058,4.593-3.105,4.593h-0.374v1.486h10.477v-1.486h-0.368c-3.061,0-3.087-1.116-3.087-4.593v-14.365h1.228
			c3.634,0,4.804,1.113,5.427,5.058h1.341l-0.138-6.794C264.886,335.41,263.285,335.464,261.578,335.464"/>
	</defs>
	<clipPath id="SVGID_59_">
		<use xlink:href="#SVGID_58_"  overflow="visible"/>
	</clipPath>
	
		<linearGradient id="SVGID_60_" gradientUnits="userSpaceOnUse" x1="-32.5" y1="405.0449" x2="-31.5" y2="405.0449" gradientTransform="matrix(0 -22.1805 -22.1805 0 9240.8662 -363.4069)">
		<stop  offset="0" style="stop-color:#E3B56A"/>
		<stop  offset="0.4" style="stop-color:#F4E589"/>
		<stop  offset="1" style="stop-color:#DFB469"/>
	</linearGradient>
	<rect x="246.985" y="335.272" clip-path="url(#SVGID_59_)" fill="url(#SVGID_60_)" width="19.556" height="22.181"/>
</g>
<g>
	<defs>
		<path id="SVGID_61_" d="M283.16,335.272v1.452h0.429c2.916,0,3.054,1.973,3.054,7.45v1.52v1.049c0,2.8-0.053,4.915-0.919,6.57
			c-0.908,1.741-2.394,2.626-4.451,2.626c-3.771,0-5.537-2.368-5.537-7.109v-7.965c0-3.114,0.173-4.141,3.084-4.141h0.14v-1.452
			h-10.053v1.452h0.117c2.891,0,3.145,1.026,3.145,4.141v8.563c0,5.77,2.109,8.505,7.763,8.505c3.658,0,6.312-1.512,7.458-4.077
			c1-2.249,0.995-4.998,0.992-8.511c-0.001-0.588-0.001-1.195,0.003-1.83c0.061-4.964-0.146-6.76,3.31-6.791v-1.452H283.16z"/>
	</defs>
	<clipPath id="SVGID_62_">
		<use xlink:href="#SVGID_61_"  overflow="visible"/>
	</clipPath>
	
		<linearGradient id="SVGID_63_" gradientUnits="userSpaceOnUse" x1="-32.5005" y1="405.0449" x2="-31.5005" y2="405.0449" gradientTransform="matrix(0 -22.6624 -22.6624 0 9459.5713 -378.5963)">
		<stop  offset="0" style="stop-color:#E3B56A"/>
		<stop  offset="0.4" style="stop-color:#F4E589"/>
		<stop  offset="1" style="stop-color:#DFB469"/>
	</linearGradient>
	<rect x="268.906" y="335.272" clip-path="url(#SVGID_62_)" fill="url(#SVGID_63_)" width="22.787" height="22.661"/>
</g>
<g>
	<defs>
		<path id="SVGID_64_" d="M300.978,345.406v-5.281c0-1.09,0.023-2.173,0.112-3.257c0.598-0.063,1.141-0.063,1.598-0.063
			c4.565,0,6.794,1.288,6.794,4.376c0,2.796-2.259,4.283-6.675,4.283C302.177,345.464,301.572,345.435,300.978,345.406
			 M294.149,335.272v1.452h0.118c2.888,0,3.136,1.026,3.136,4.141v10.986c0,3.09-0.248,4.115-3.136,4.115h-0.118v1.486h10.05v-1.486
			h-0.14c-2.912,0-3.082-1.025-3.082-4.115v-4.963c0.429-0.023,0.829-0.053,1.169-0.053c2.082,0,2.795,0.767,4.051,2.821
			l4.287,7.106c0.313,0.55,0.576,0.808,1.141,0.777l4.368-0.088v-1.46c-0.142,0-0.313,0.032-0.454,0.032
			c-1.655,0-2.115-0.827-2.995-2.312l-2.429-4.114c-0.856-1.455-1.891-2.568-3.113-3.25c4.221-0.832,6.285-2.521,6.285-5.455
			c0-3.856-3.199-5.622-9.885-5.622H294.149z"/>
	</defs>
	<clipPath id="SVGID_65_">
		<use xlink:href="#SVGID_64_"  overflow="visible"/>
	</clipPath>
	
		<linearGradient id="SVGID_66_" gradientUnits="userSpaceOnUse" x1="-32.5" y1="405.0449" x2="-31.5" y2="405.0449" gradientTransform="matrix(0 -22.25 -22.25 0 9317.3125 -365.6094)">
		<stop  offset="0" style="stop-color:#E3B56A"/>
		<stop  offset="0.4" style="stop-color:#F4E589"/>
		<stop  offset="1" style="stop-color:#DFB469"/>
	</linearGradient>
	<rect x="294.149" y="335.272" clip-path="url(#SVGID_65_)" fill="url(#SVGID_66_)" width="21.844" height="22.299"/>
</g>
<g>
	<defs>
		<path id="SVGID_67_" d="M327.246,335.348c-3.054,0-5.795,0-8.198-0.075l-0.515,7.275h1.461c0.565-5.113,2.433-5.854,7.482-5.854
			h3.252l-13.217,19.472v1.288c2.879-0.056,5.541-0.112,7.988-0.112c2.43,0,5.313,0.03,8.654,0.112l0.829-7.596h-1.488
			c-0.568,2.712-1.279,4.366-2.683,5.172c-1.25,0.71-2.995,0.796-5.368,0.796h-1.053h-2.738l13.042-19.244v-1.309
			C332.181,335.348,329.702,335.348,327.246,335.348"/>
	</defs>
	<clipPath id="SVGID_68_">
		<use xlink:href="#SVGID_67_"  overflow="visible"/>
	</clipPath>
	
		<linearGradient id="SVGID_69_" gradientUnits="userSpaceOnUse" x1="-32.5" y1="405.0449" x2="-31.5" y2="405.0449" gradientTransform="matrix(0 -22.1805 -22.1805 0 9310.3506 -363.4069)">
		<stop  offset="0" style="stop-color:#E3B56A"/>
		<stop  offset="0.4" style="stop-color:#F4E589"/>
		<stop  offset="1" style="stop-color:#DFB469"/>
	</linearGradient>
	<rect x="317.512" y="335.272" clip-path="url(#SVGID_68_)" fill="url(#SVGID_69_)" width="17.472" height="22.181"/>
</g>
<g>
	<defs>
		<path id="SVGID_70_" d="M345.774,335.272c-0.833,0-2.397,0.025-4.596,0.025c-1.079,0-2.372,0-3.833-0.025v1.452h0.116
			c3.114,0,3.149,1.173,3.149,4.624v9.368v0.941c0,3.192-0.154,4.309-3.059,4.309h-0.207v1.486h19.276l0.662-7.596h-1.434
			c-1.341,4.713-2.911,6.057-7.166,6.057c-1.399,0-2.884-0.032-4.425-0.233c-0.088-1.912-0.141-3.767-0.141-5.653
			c0-0.911,0-1.995,0.024-3.313c0.347,0,0.632-0.025,0.919-0.025c3.171,0,4.366,0.795,4.425,3.655h1.511
			c-0.058-1.653-0.058-3.168-0.058-4.539c0-1.398,0.033-2.802,0.058-4.171h-1.511v0.174c0,2.398-1.317,3.424-4.197,3.424h-1.146
			c-0.024-1.278-0.024-2.766-0.024-4.428c0-1.225,0.024-2.567,0.077-4.08h2.198h1.973c4.258,0,5.917,1.344,6.174,5.766h1.563
			l-0.166-7.425C353.455,335.272,350.085,335.272,345.774,335.272"/>
	</defs>
	<clipPath id="SVGID_71_">
		<use xlink:href="#SVGID_70_"  overflow="visible"/>
	</clipPath>
	
		<linearGradient id="SVGID_72_" gradientUnits="userSpaceOnUse" x1="-32.5" y1="405.0459" x2="-31.5" y2="405.0459" gradientTransform="matrix(0 -22.3874 -22.3874 0 9415.2227 -370.142)">
		<stop  offset="0" style="stop-color:#E3B56A"/>
		<stop  offset="0.4" style="stop-color:#F4E589"/>
		<stop  offset="1" style="stop-color:#DFB469"/>
	</linearGradient>
	<rect x="337.346" y="335.065" clip-path="url(#SVGID_71_)" fill="url(#SVGID_72_)" width="19.938" height="22.388"/>
</g>
<line fill="none" stroke="#FFFFFF" stroke-width="0.915" stroke-miterlimit="2.613" x1="3.974" y1="347.084" x2="57.028" y2="347.084"/>
<g>
	<defs>
		<path id="SVGID_73_" d="M3.971,347.928h53.058v-1.687H3.971V347.928z M367.272,347.928h53.056v-1.687h-53.056V347.928z"/>
	</defs>
	<clipPath id="SVGID_74_">
		<use xlink:href="#SVGID_73_"  overflow="visible"/>
	</clipPath>
	
		<linearGradient id="SVGID_75_" gradientUnits="userSpaceOnUse" x1="-32.5015" y1="405" x2="-31.5015" y2="405" gradientTransform="matrix(416.3565 0 0 -416.3565 13536.4922 168971.375)">
		<stop  offset="0" style="stop-color:#E3B56A"/>
		<stop  offset="0.4" style="stop-color:#F4E589"/>
		<stop  offset="1" style="stop-color:#DFB469"/>
	</linearGradient>
	<rect x="3.971" y="346.241" clip-path="url(#SVGID_74_)" fill="url(#SVGID_75_)" width="416.357" height="1.687"/>
</g>
<g>
	<defs>
		<path id="SVGID_76_" d="M213.025,3.992c-3.347-0.065-23.971,0.267-29.647,18.327c-0.134,0.427-0.187,1.085-0.187,1.858
			c0,3.033,0.814,7.879,0.814,7.879l20.614,117.37l8.562-0.194l8.717,0.164L242.151,31.97c0,0,1.262-7.642,0.599-9.742
			c-5.454-17.175-24.408-18.243-29.114-18.243C213.393,3.985,213.188,3.988,213.025,3.992"/>
	</defs>
	<clipPath id="SVGID_77_">
		<use xlink:href="#SVGID_76_"  overflow="visible"/>
	</clipPath>
	
		<linearGradient id="SVGID_78_" gradientUnits="userSpaceOnUse" x1="-32.5" y1="405.0068" x2="-31.5" y2="405.0068" gradientTransform="matrix(0 -145.5086 -145.5086 0 59145.25 -4579.5464)">
		<stop  offset="0" style="stop-color:#E3B56A"/>
		<stop  offset="0.4" style="stop-color:#F4E589"/>
		<stop  offset="0.65" style="stop-color:#C4904E"/>
		<stop  offset="1" style="stop-color:#DFB469"/>
	</linearGradient>
	<rect x="183.191" y="3.927" clip-path="url(#SVGID_77_)" fill="url(#SVGID_78_)" width="60.222" height="145.499"/>
</g>
<g>
	<defs>
		<path id="SVGID_79_" d="M252.414,24.901c-1.349,1.747-2.798,9.352-2.798,9.352l-21.313,117.241l8.144,2.798l8.078,3.169
			l59.677-103.146c0,0,3.839-6.731,3.948-8.932c0.867-18.981-18.553-26.365-21.606-27.407c-1.591-0.623-7.187-2.607-13.829-2.608
			C266.002,15.368,258.219,17.394,252.414,24.901"/>
	</defs>
	<clipPath id="SVGID_80_">
		<use xlink:href="#SVGID_79_"  overflow="visible"/>
	</clipPath>
	
		<linearGradient id="SVGID_81_" gradientUnits="userSpaceOnUse" x1="-32.5005" y1="405.0068" x2="-31.5005" y2="405.0068" gradientTransform="matrix(0 -136.89 -136.89 0 55710.0859 -4291.4976)">
		<stop  offset="0" style="stop-color:#E3B56A"/>
		<stop  offset="0.4" style="stop-color:#F4E589"/>
		<stop  offset="0.65" style="stop-color:#C4904E"/>
		<stop  offset="1" style="stop-color:#DFB469"/>
	</linearGradient>
	<rect x="228.304" y="15.368" clip-path="url(#SVGID_80_)" fill="url(#SVGID_81_)" width="80.714" height="142.093"/>
</g>
<g>
	<defs>
		<path id="SVGID_82_" d="M318.39,52.076c-1.895,1.125-6.03,7.673-6.03,7.673L249.464,160.96l6.549,5.601l6.34,5.899l93.396-74.004
			c0,0,6.044-4.852,6.949-6.858c7.762-17.292-7.479-31.262-9.995-33.408c-1.821-1.699-10.872-9.567-22.063-9.567
			C326.745,48.623,322.59,49.577,318.39,52.076"/>
	</defs>
	<clipPath id="SVGID_83_">
		<use xlink:href="#SVGID_82_"  overflow="visible"/>
	</clipPath>
	
		<linearGradient id="SVGID_84_" gradientUnits="userSpaceOnUse" x1="-32.5" y1="405.0078" x2="-31.5" y2="405.0078" gradientTransform="matrix(0 -117.91 -117.91 0 48064.4961 -3659.6172)">
		<stop  offset="0" style="stop-color:#E3B56A"/>
		<stop  offset="0.4" style="stop-color:#F4E589"/>
		<stop  offset="0.65" style="stop-color:#C4904E"/>
		<stop  offset="1" style="stop-color:#DFB469"/>
	</linearGradient>
	<rect x="249.464" y="48.623" clip-path="url(#SVGID_83_)" fill="url(#SVGID_84_)" width="120.996" height="123.837"/>
</g>
<g>
	<defs>
		<path id="SVGID_85_" d="M367.894,97.381c-2.157,0.451-8.21,5.292-8.21,5.292l-92.429,75.205l4.413,7.516l4.024,7.55h0.003
			L388.1,153.408c0,0,7.293-2.627,8.81-4.224c12.834-13.669,3.324-31.598,1.492-34.739c-1.275-2.418-9.887-17.603-25.376-17.604
			C371.391,96.841,369.681,97.01,367.894,97.381"/>
	</defs>
	<clipPath id="SVGID_86_">
		<use xlink:href="#SVGID_85_"  overflow="visible"/>
	</clipPath>
	
		<linearGradient id="SVGID_87_" gradientUnits="userSpaceOnUse" x1="-32.5" y1="405.0117" x2="-31.5" y2="405.0117" gradientTransform="matrix(0 -92.87 -92.87 0 37951.8672 -2825.314)">
		<stop  offset="0" style="stop-color:#E3B56A"/>
		<stop  offset="0.4" style="stop-color:#F4E589"/>
		<stop  offset="0.65" style="stop-color:#C4904E"/>
		<stop  offset="1" style="stop-color:#DFB469"/>
	</linearGradient>
	<rect x="267.255" y="96.841" clip-path="url(#SVGID_86_)" fill="url(#SVGID_87_)" width="142.488" height="96.104"/>
</g>
<g>
	<defs>
		<path id="SVGID_88_" d="M388.125,159.073L275.967,199.32l1.651,8.47l1.299,8.543l119.162,0.032c0,0,7.749-0.054,9.713-1.063
			c16.671-8.642,13.615-28.75,12.937-32.283c-0.451-3.037-4.179-23.662-23.107-26.209c-0.12-0.017-0.254-0.025-0.403-0.025
			C394.66,156.786,388.125,159.073,388.125,159.073"/>
	</defs>
	<clipPath id="SVGID_89_">
		<use xlink:href="#SVGID_88_"  overflow="visible"/>
	</clipPath>
	
		<linearGradient id="SVGID_90_" gradientUnits="userSpaceOnUse" x1="-32.5005" y1="405.0176" x2="-31.5005" y2="405.0176" gradientTransform="matrix(0 -59.31 -59.31 0 24371.7773 -1711.2195)">
		<stop  offset="0" style="stop-color:#E3B56A"/>
		<stop  offset="0.4" style="stop-color:#F4E589"/>
		<stop  offset="0.65" style="stop-color:#C4904E"/>
		<stop  offset="1" style="stop-color:#DFB469"/>
	</linearGradient>
	<rect x="275.967" y="156.786" clip-path="url(#SVGID_89_)" fill="url(#SVGID_90_)" width="148.496" height="59.579"/>
</g>
<g>
	<defs>
		<path id="SVGID_91_" d="M141.456,15.394c-3.228,1.032-22.154,7.846-22.154,26.245c0,0.211,0.002,0.423,0.007,0.638
			c0.05,2.209,3.722,9.023,3.722,9.023l57.297,104.489l8.122-2.972l8.23-2.62L178.056,32.5c0,0-1.266-7.637-2.572-9.415
			c-5.848-7.935-13.973-10.006-20.861-10.006C148.24,13.078,142.92,14.857,141.456,15.394"/>
	</defs>
	<clipPath id="SVGID_92_">
		<use xlink:href="#SVGID_91_"  overflow="visible"/>
	</clipPath>
	
		<linearGradient id="SVGID_93_" gradientUnits="userSpaceOnUse" x1="-32.5" y1="405.0068" x2="-31.5" y2="405.0068" gradientTransform="matrix(0 -137.62 -137.62 0 55895.0547 -4316.8765)">
		<stop  offset="0" style="stop-color:#E3B56A"/>
		<stop  offset="0.4" style="stop-color:#F4E589"/>
		<stop  offset="0.65" style="stop-color:#C4904E"/>
		<stop  offset="1" style="stop-color:#DFB469"/>
	</linearGradient>
	<rect x="119.302" y="13.078" clip-path="url(#SVGID_92_)" fill="url(#SVGID_93_)" width="77.378" height="142.711"/>
</g>
<g>
	<defs>
		<path id="SVGID_94_" d="M75.785,53.81c-2.135,1.737-12.739,11.004-12.739,23.755c0,2.957,0.569,6.099,1.945,9.378
			c0.855,2.032,6.77,7.031,6.77,7.031l91.54,76.293l6.433-5.7l6.739-5.484L116.101,56.351c0,0-3.976-6.645-5.841-7.821
			c-4.349-2.733-8.69-3.759-12.756-3.759C86.545,44.77,77.574,52.223,75.785,53.81"/>
	</defs>
	<clipPath id="SVGID_95_">
		<use xlink:href="#SVGID_94_"  overflow="visible"/>
	</clipPath>
	
		<linearGradient id="SVGID_96_" gradientUnits="userSpaceOnUse" x1="-32.5" y1="405.0078" x2="-31.5" y2="405.0078" gradientTransform="matrix(0 -119.46 -119.46 0 48502.0703 -3712.1821)">
		<stop  offset="0" style="stop-color:#E3B56A"/>
		<stop  offset="0.4" style="stop-color:#F4E589"/>
		<stop  offset="0.65" style="stop-color:#C4904E"/>
		<stop  offset="1" style="stop-color:#DFB469"/>
	</linearGradient>
	<rect x="63.046" y="44.77" clip-path="url(#SVGID_95_)" fill="url(#SVGID_96_)" width="113.427" height="125.497"/>
</g>
<g>
	<defs>
		<path id="SVGID_97_" d="M27.815,113.311c-1.005,1.706-5.135,9.274-5.137,18.059c0,5.503,1.62,11.482,6.644,16.803
			c1.521,1.606,8.811,4.207,8.811,4.207l112.517,39.251l4.06-7.662l4.34-7.433l-92.632-74.962c0,0-6.049-4.823-8.213-5.272
			c-1.768-0.362-3.46-0.527-5.076-0.527C37.829,95.775,29.279,110.552,27.815,113.311"/>
	</defs>
	<clipPath id="SVGID_98_">
		<use xlink:href="#SVGID_97_"  overflow="visible"/>
	</clipPath>
	
		<linearGradient id="SVGID_99_" gradientUnits="userSpaceOnUse" x1="-32.5" y1="405.0098" x2="-31.5" y2="405.0098" gradientTransform="matrix(0 -92.7 -92.7 0 37635.3672 -2821.1226)">
		<stop  offset="0" style="stop-color:#E3B56A"/>
		<stop  offset="0.4" style="stop-color:#F4E589"/>
		<stop  offset="0.65" style="stop-color:#C4904E"/>
		<stop  offset="1" style="stop-color:#DFB469"/>
	</linearGradient>
	<rect x="22.678" y="95.775" clip-path="url(#SVGID_98_)" fill="url(#SVGID_99_)" width="136.372" height="95.856"/>
</g>
<g>
	<defs>
		<path id="SVGID_100_" d="M27.082,156.449c-18.665,2.526-22.534,22.6-23.064,26.063c-0.198,0.995-0.682,3.809-0.682,7.454
			c0,7.672,2.143,19.043,13.609,24.98c1.959,1.012,9.701,1.063,9.701,1.063l119.168-0.079l1.298-8.579l1.658-8.45l-112.185-40.19
			c0,0-6.545-2.286-9.105-2.286C27.334,156.425,27.201,156.433,27.082,156.449"/>
	</defs>
	<clipPath id="SVGID_101_">
		<use xlink:href="#SVGID_100_"  overflow="visible"/>
	</clipPath>
	
		<linearGradient id="SVGID_102_" gradientUnits="userSpaceOnUse" x1="-32.5" y1="405.0176" x2="-31.5" y2="405.0176" gradientTransform="matrix(0 -59.32 -59.32 0 24101.668 -1711.9052)">
		<stop  offset="0" style="stop-color:#E3B56A"/>
		<stop  offset="0.4" style="stop-color:#F4E589"/>
		<stop  offset="0.65" style="stop-color:#C4904E"/>
		<stop  offset="1" style="stop-color:#DFB469"/>
	</linearGradient>
	<rect x="3.336" y="156.425" clip-path="url(#SVGID_101_)" fill="url(#SVGID_102_)" width="145.434" height="59.585"/>
</g>
<g>
	<defs>
		<rect id="SVGID_103_" x="-7.783" y="-5.072" width="439" height="387"/>
	</defs>
	<clipPath id="SVGID_104_">
		<use xlink:href="#SVGID_103_"  overflow="visible"/>
	</clipPath>
	<path clip-path="url(#SVGID_104_)" fill-rule="evenodd" clip-rule="evenodd" fill="#ED1C24" d="M143.582,216.388
		c0-38.416,31.145-69.563,69.566-69.563c38.419,0,69.571,31.147,69.571,69.563H143.582z"/>
</g>
</svg>
